# Blender v2.81 (sub 16) OBJ File: '2.blend'
# www.blender.org
mtllib 2.mtl
o Cube.003_Cube.015
v 3.445836 11.303185 -1.665145
v 3.445836 10.292182 -1.665145
v 3.445837 11.303185 1.665143
v 3.445837 10.292182 1.665143
v -3.445837 11.303185 -1.665143
v -3.445837 10.292182 -1.665143
v -3.445836 11.303185 1.665145
v -3.445836 10.292182 1.665145
v 3.445836 6.555420 -1.665145
v 3.445836 5.544417 -1.665145
v 3.445837 6.555420 1.665143
v 3.445837 5.544417 1.665143
v -3.445837 6.555420 -1.665143
v -3.445837 5.544417 -1.665143
v -3.445836 6.555420 1.665145
v -3.445836 5.544417 1.665145
v 3.445836 1.016576 -1.665145
v 3.445836 0.005573 -1.665145
v 3.445837 1.016576 1.665143
v 3.445837 0.005573 1.665143
v -3.445837 1.016576 -1.665143
v -3.445837 0.005573 -1.665143
v -3.445836 1.016576 1.665145
v -3.445836 0.005573 1.665145
v -2.424210 1.016576 1.655145
v -2.424211 1.016576 -1.655143
v -3.435215 1.016576 -1.655143
v -3.435214 1.016576 1.655145
v -3.435215 5.544416 -1.655143
v -3.435214 5.544416 1.655145
v -2.424210 5.544416 1.655145
v -2.424211 5.544416 -1.655143
v 3.406754 6.555420 1.655143
v 3.406754 6.555420 -1.655145
v 3.406754 6.555420 -1.646259
v 2.395750 6.555420 -1.655145
v 2.395750 6.555420 -1.157708
v 2.395751 6.555420 1.655143
v 2.395751 10.292182 1.655143
v 3.406754 10.292182 1.655143
v 3.406754 10.292182 -1.655145
v 2.395750 10.292182 -1.655145
vt 0.375000 0.250000
vt 0.625000 0.000000
vt 0.375000 0.000000
vt 0.375000 0.500000
vt 0.625000 0.250000
vt 0.375000 0.750000
vt 0.625000 0.500000
vt 0.375000 1.000000
vt 0.625000 0.750000
vt 0.125000 0.750000
vt 0.125000 0.500000
vt 0.836907 0.500751
vt 0.875000 0.500000
vt 0.375000 0.250000
vt 0.625000 0.000000
vt 0.375000 0.000000
vt 0.375000 0.500000
vt 0.625000 0.250000
vt 0.375000 0.750000
vt 0.625000 0.500000
vt 0.375000 1.000000
vt 0.625000 0.750000
vt 0.125000 0.500000
vt 0.163093 0.500751
vt 0.625385 0.749249
vt 0.625385 0.500751
vt 0.375000 0.250000
vt 0.625000 0.000000
vt 0.375000 0.000000
vt 0.375000 0.500000
vt 0.625000 0.250000
vt 0.375000 0.750000
vt 0.625000 0.500000
vt 0.375000 1.000000
vt 0.625000 0.750000
vt 0.125000 0.500000
vt 0.337940 0.500751
vt 0.875000 0.500000
vt 0.374615 0.500751
vt 0.374615 0.749249
vt 0.625000 0.763506
vt 0.375000 0.965678
vt 0.625000 0.965678
vt 0.638506 0.750000
vt 0.840678 0.500000
vt 0.638506 0.500000
vt 0.375000 0.284322
vt 0.625000 0.486494
vt 0.625000 0.284322
vt 0.159322 0.750000
vt 0.361494 0.500000
vt 0.159322 0.500000
vt 0.662060 0.749249
vt 0.875000 0.750000
vt 0.163093 0.749249
vt 0.126418 0.749249
vt 0.125000 0.750000
vt 0.375000 0.792916
vt 0.625000 0.959765
vt 0.625000 0.792916
vt 0.667916 0.749329
vt 0.834765 0.750000
vt 0.834766 0.500000
vt 0.375000 0.290235
vt 0.625000 0.457084
vt 0.625000 0.290235
vt 0.165235 0.750000
vt 0.332084 0.750000
vt 0.332084 0.712433
vt 0.875000 0.750000
vt 0.873582 0.500751
vt 0.873582 0.749249
vt 0.625000 1.000000
vt 0.836907 0.749249
vt 0.625000 1.000000
vt 0.126418 0.748582
vt 0.126418 0.500751
vt 0.163093 0.711907
vt 0.662060 0.500751
vt 0.875000 0.500000
vt 0.625000 1.000000
vt 0.125000 0.750000
vt 0.337940 0.749249
vt 0.875000 0.750000
vt 0.375000 0.763506
vt 0.840678 0.750000
vt 0.375000 0.486494
vt 0.361494 0.750000
vt 0.375000 0.959766
vt 0.667916 0.500000
vt 0.667916 0.750000
vt 0.375000 0.457084
vt 0.332084 0.500000
vt 0.165235 0.500000
vn 1.0000 0.0000 -0.0000
vn 0.0000 0.0000 1.0000
vn -1.0000 0.0000 0.0000
vn -0.0000 0.0000 -1.0000
vn 0.0000 1.0000 -0.0000
vn 0.0000 -1.0000 0.0000
vn 0.0000 -1.0000 -0.0001
usemtl None
s off
f 3/1/1 2/2/1 1/3/1
f 7/4/2 4/5/2 3/1/2
f 5/6/3 8/7/3 7/4/3
f 1/8/4 6/9/4 5/6/4
f 1/10/5 7/4/5 3/11/5
f 8/7/6 39/12/6 4/13/6
f 11/14/1 10/15/1 9/16/1
f 15/17/2 12/18/2 11/14/2
f 13/19/3 16/20/3 15/17/3
f 9/21/4 14/22/4 13/19/4
f 11/23/5 38/24/5 15/17/5
f 16/20/6 29/25/6 30/26/6
f 19/27/1 18/28/1 17/29/1
f 23/30/2 20/31/2 19/27/2
f 21/32/3 24/33/3 23/30/3
f 17/34/4 22/35/4 21/32/4
f 19/36/5 25/37/5 23/30/5
f 22/35/6 20/38/6 24/33/6
f 21/32/5 28/39/5 27/40/5
f 26/41/4 29/42/4 32/43/4
f 26/44/1 31/45/1 25/46/1
f 30/47/2 25/48/2 31/49/2
f 29/50/3 28/51/3 30/52/3
f 32/53/6 14/22/6 10/54/6
f 36/55/5 34/56/5 9/57/5
f 36/58/4 41/59/4 34/60/4
f 35/61/1 41/62/1 40/63/1
f 39/64/2 33/65/2 40/66/2
f 42/67/3 36/68/3 37/69/3
f 2/70/6 40/71/6 41/72/6
f 3/1/1 4/5/1 2/2/1
f 7/4/2 8/7/2 4/5/2
f 5/6/3 6/9/3 8/7/3
f 1/8/4 2/73/4 6/9/4
f 1/10/5 5/6/5 7/4/5
f 8/7/6 6/9/6 42/74/6
f 39/12/7 40/71/7 4/13/7
f 8/7/6 42/74/6 39/12/6
f 11/14/1 12/18/1 10/15/1
f 15/17/2 16/20/2 12/18/2
f 13/19/3 14/22/3 16/20/3
f 9/21/4 10/75/4 14/22/4
f 11/23/5 9/57/5 35/76/5
f 11/23/5 35/76/5 33/77/5
f 37/78/5 13/19/5 15/17/5
f 11/23/5 33/77/5 38/24/5
f 38/24/5 37/78/5 15/17/5
f 16/20/6 14/22/6 29/25/6
f 30/26/6 31/79/6 16/20/6
f 31/79/6 12/80/6 16/20/6
f 19/27/1 20/31/1 18/28/1
f 23/30/2 24/33/2 20/31/2
f 21/32/3 22/35/3 24/33/3
f 17/34/4 18/81/4 22/35/4
f 19/36/5 17/82/5 26/83/5
f 25/37/5 28/39/5 23/30/5
f 19/36/5 26/83/5 25/37/5
f 22/35/6 18/84/6 20/38/6
f 21/32/5 23/30/5 28/39/5
f 27/40/5 26/83/5 21/32/5
f 26/83/5 17/82/5 21/32/5
f 26/41/4 27/85/4 29/42/4
f 26/44/1 32/86/1 31/45/1
f 30/47/2 28/87/2 25/48/2
f 29/50/3 27/88/3 28/51/3
f 10/54/6 12/80/6 31/79/6
f 32/53/6 29/25/6 14/22/6
f 10/54/6 31/79/6 32/53/6
f 13/19/5 37/78/5 36/55/5
f 34/56/5 35/76/5 9/57/5
f 13/19/5 36/55/5 9/57/5
f 36/58/4 42/89/4 41/59/4
f 40/63/1 33/90/1 35/61/1
f 35/61/1 34/91/1 41/62/1
f 39/64/2 38/92/2 33/65/2
f 38/93/3 39/94/3 37/69/3
f 39/94/3 42/67/3 37/69/3
f 2/70/6 4/13/6 40/71/6
f 41/72/6 42/74/6 2/70/6
f 42/74/6 6/9/6 2/70/6
